# xmcd CD database file
#
# Track frame offsets:
#	150
#	20485
#	35252
#	57157
#	78262
#	96272
#	113528
#	126792
#	141577
#	151981
#	172643
#	175938
#	194070
#	195342
#
# Disc length: 2818 seconds
#
# Revision: 2
# Processed by: cddbd v1.5.2PL0 Copyright (c) Steve Scherf et al.
# Submitted via: CDex 1.70beta2
#
DISCID=b00b000e
DTITLE=Love of Lesbian - Cuentos chinos para niños del Japón
DYEAR=2007
DGENRE=Pop
TTITLE0=Universos infinitos
TTITLE1=La niña imantada
TTITLE2=Noches reversibles
TTITLE3=Los colores de una sombra
TTITLE4=Un día en el parque
TTITLE5=Villancico para mi cuñado Fernando
TTITLE6=Shiwa
TTITLE7=Me amo
TTITLE8=Historia de una hache que no quería ser muda
TTITLE9=La parábola del tonto
TTITLE10=Momento de reflexión *1
TTITLE11=Dios por Dios es cuatro
TTITLE12=Moment de reflexió *2
TTITLE13=Shiwa (tot a zen)
EXTD=YEAR: 2007
EXTT0=
EXTT1=
EXTT2=
EXTT3=
EXTT4=
EXTT5=
EXTT6=
EXTT7=
EXTT8=
EXTT9=
EXTT10=
EXTT11=
EXTT12=
EXTT13=
PLAYORDER=
